<svg xmlns="http://www.w3.org/2000/svg" version="1.1" aria-labelledby="heroku-logo-title" role="img" viewBox="0 0 69 74"><title id="heroku-logo-title">Heroku logo</title><path d="M61.9083 0H6.9C3.06666 0 0 2.96 0 6.66V67.34C0 71.04 3.06666 74 6.9 74H61.9083C65.7417 74 68.8083 71.04 68.8083 67.34V6.66C68.8083 2.96 65.7417 0 61.9083 0ZM64.975 67.34C64.975 69.005 63.6333 70.3 61.9083 70.3H6.9C5.175 70.3 3.83333 69.005 3.83333 67.34V6.66C3.83333 4.995 5.175 3.7 6.9 3.7H61.9083C63.6333 3.7 64.975 4.995 64.975 6.66V67.34ZM17.25 62.9L25.875 55.5L17.25 48.1V62.9ZM48.3 32.93C46.7667 31.45 43.8917 29.6 39.1 29.6C33.925 29.6 28.5583 30.895 24.725 32.19V11.1H17.0583V43.105L22.425 40.7C22.425 40.7 31.2417 36.815 38.9083 36.815C42.7417 36.815 43.7 38.85 43.7 40.7V62.9H51.3667V40.7C51.5583 40.145 51.5583 36.075 48.3 32.93ZM38.1417 23.125H45.8083C49.2583 19.24 50.9833 15.355 51.5583 11.1H43.8917C43.125 15.355 41.2083 19.24 38.1417 23.125Z" fill="#430098"></path></svg>
