<svg xmlns="http://www.w3.org/2000/svg" class="css-1vouutb e1jva2yi0" version="1.1" aria-labelledby="slack-logo-title" role="img" viewBox="0 0 74 74"><title id="slack-logo-title">Slack logo</title><path d="M27.0125 0.182617C22.9437 0.182617 19.6458 3.48795 19.6458 7.56412C19.6448 8.5325 19.8346 9.49159 20.2043 10.3866C20.5739 11.2817 21.1163 12.0951 21.8004 12.7806C22.4844 13.466 23.2968 14.01 24.1911 14.3815C25.0854 14.7529 26.0441 14.9446 27.0125 14.9456H34.3804V7.56412C34.382 5.60827 33.6067 3.73186 32.225 2.3476C30.8433 0.963333 28.9683 0.184579 27.0125 0.182617V0.182617ZM27.0125 19.8666H7.3667C3.29793 19.8666 0 23.1719 0 27.2493C0 31.3255 3.29793 34.6309 7.3667 34.6309H27.0137C31.0812 34.6309 34.3804 31.3255 34.3804 27.2493C34.3804 23.1719 31.0812 19.8666 27.0125 19.8666" fill="#36C5F0"></path><path d="M73.6719 27.2493C73.6719 23.1719 70.3727 19.8666 66.304 19.8666C62.2352 19.8666 58.9373 23.1719 58.9373 27.2493V34.6308H66.304C68.2598 34.6289 70.1348 33.8501 71.5165 32.4659C72.8982 31.0816 73.6735 29.2052 73.6719 27.2493V27.2493ZM54.0261 27.2493V7.56412C54.0278 5.60827 53.2525 3.73186 51.8707 2.3476C50.489 0.963333 48.6141 0.184579 46.6582 0.182617C42.5894 0.182617 39.2915 3.48795 39.2915 7.56412V27.2481C39.2915 31.3267 42.5894 34.6321 46.6582 34.6321C48.6141 34.6301 50.489 33.8514 51.8707 32.4671C53.2525 31.0828 54.0278 29.2064 54.0261 27.2506" fill="#2EB67D"></path><path d="M46.6582 74C48.6141 73.998 50.489 73.2193 51.8708 71.835C53.2525 70.4507 54.0278 68.5743 54.0261 66.6185C54.0278 64.6626 53.2525 62.7862 51.8708 61.402C50.489 60.0177 48.6141 59.2389 46.6582 59.237H39.2915V66.6185C39.2915 70.6947 42.5894 74 46.6582 74ZM46.6582 54.316H66.3052C70.3728 54.316 73.6719 51.0107 73.6719 46.9333C73.6736 44.9774 72.8983 43.101 71.5165 41.7167C70.1348 40.3325 68.2598 39.5537 66.304 39.5518H46.6582C42.5894 39.5518 39.2915 42.8571 39.2915 46.9333C39.2905 47.9016 39.4803 48.8607 39.85 49.7558C40.2197 50.6508 40.762 51.4643 41.4461 52.1497C42.1302 52.8351 42.9425 53.3791 43.8368 53.7506C44.7311 54.1221 45.6898 54.3138 46.6582 54.3148" fill="#ECB22E"></path><path d="M3.71706e-06 46.9333C-0.000968553 47.9016 0.188806 48.8607 0.558491 49.7558C0.928176 50.6508 1.47053 51.4643 2.15459 52.1497C2.83866 52.8351 3.65103 53.3791 4.54532 53.7506C5.43962 54.1221 6.39832 54.3138 7.3667 54.3148C9.32255 54.3128 11.1975 53.534 12.5792 52.1498C13.961 50.7655 14.7363 48.8891 14.7346 46.9333V39.5518H7.3667C3.29794 39.5518 3.71706e-06 42.8571 3.71706e-06 46.9333V46.9333ZM19.6458 46.9333V66.6173C19.6458 70.6947 22.9437 74 27.0125 74C28.9683 73.998 30.8433 73.2193 32.225 71.835C33.6067 70.4507 34.382 68.5743 34.3804 66.6185V46.9333C34.3814 45.9648 34.1916 45.0056 33.8218 44.1105C33.452 43.2153 32.9096 42.4018 32.2254 41.7164C31.5412 41.0309 30.7287 40.487 29.8342 40.1156C28.9398 39.7441 27.981 39.5526 27.0125 39.5518C22.9437 39.5518 19.6458 42.8571 19.6458 46.9333Z" fill="#E01E5A"></path></svg>
