<?xml version="1.0" encoding="UTF-8" standalone="no"?>
<svg
   xmlns="http://www.w3.org/2000/svg"
   version="1.1"
   viewBox="0 0 160 160"
   height="160mm"
   width="160mm">
  <g
     transform="translate(0,-137)">
    <rect
       transform="rotate(45)"
       style="fill:#0000a0"
       y="40.305077"
       x="153.44217"
       height="113.13708"
       width="113.13708" />
    <g
       style="fill:#ededed"
       aria-label="s"
       scale="2"
       transform="matrix(1.7643263,0,0,1.7643263,-28.276456,-174.26172)">
      <path
         d="m 70.578523,232.48323 q 0,-2.93005 -2.604492,-4.18579 l -15.76648,-7.58093 q -6.185669,-2.97657 -6.185669,-9.72034 0,-5.302 4.371826,-8.18555 3.767212,-2.51147 9.394776,-2.51147 6.836792,0 12.231811,3.39514 1.627808,1.02319 1.627808,2.69751 0,1.25574 -0.930176,2.18591 -0.883667,0.88367 -2.139404,0.88367 -0.837158,0 -1.441773,-0.37207 -4.418335,-2.651 -9.348266,-2.651 -7.627442,0 -7.627442,4.55786 0,2.88354 2.511475,4.09277 l 15.906006,7.67395 q 6.13916,2.97657 6.13916,9.72034 0,5.58106 -4.418335,8.37158 -3.767212,2.37195 -9.720337,2.37195 -8.83667,0 -14.836304,-3.39514 -1.720825,-0.97669 -1.720825,-2.74402 0,-1.25574 0.883667,-2.1394 0.930176,-0.93018 2.185913,-0.93018 0.604615,0 1.16272,0.23254 1.488281,0.65113 4.371826,1.72083 4.185791,1.11621 8.139038,1.11621 7.813477,0 7.813477,-4.60437 z" />
    </g>
  </g>
</svg>
