<?xml version="1.0" encoding="UTF-8" standalone="no"?>
<svg
   xmlns="http://www.w3.org/2000/svg"
   version="1.1"
   viewBox="0 0 160 160"
   height="160mm"
   width="160mm">
  <g transform="translate(0,-137)">
    <circle
       r="80"
       cy="217"
       cx="80"
       style="fill:#f5c600;fill-opacity:1;stroke:none;stroke-width:0.67424756;stroke-miterlimit:4;stroke-dasharray:none;stroke-opacity:1" />
    <g
       transform="scale(1.0000022,0.99999781)"
       aria-label="sf">
      <path
         d="m 70.578523,232.48323 q 0,-2.93005 -2.604492,-4.18579 l -15.76648,-7.58093 q -6.185669,-2.97657 -6.185669,-9.72034 0,-5.302 4.371826,-8.18555 3.767212,-2.51147 9.394776,-2.51147 6.836792,0 12.231811,3.39514 1.627808,1.02319 1.627808,2.69751 0,1.25574 -0.930176,2.18591 -0.883667,0.88367 -2.139404,0.88367 -0.837158,0 -1.441773,-0.37207 -4.418335,-2.651 -9.348266,-2.651 -7.627442,0 -7.627442,4.55786 0,2.88354 2.511475,4.09277 l 15.906006,7.67395 q 6.13916,2.97657 6.13916,9.72034 0,5.58106 -4.418335,8.37158 -3.767212,2.37195 -9.720337,2.37195 -8.83667,0 -14.836304,-3.39514 -1.720825,-0.97669 -1.720825,-2.74402 0,-1.25574 0.883667,-2.1394 0.930176,-0.93018 2.185913,-0.93018 0.604615,0 1.16272,0.23254 1.488281,0.65113 4.371826,1.72083 4.185791,1.11621 8.139038,1.11621 7.813477,0 7.813477,-4.60437 z" />
      <path
         d="m 88.82179,200.25264 h 3.06958 v -6.13916 q 0,-5.16248 3.581177,-8.69714 3.581177,-3.58118 8.697143,-3.58118 h 3.06958 q 3.06958,0 3.06958,3.06958 0,3.06958 -3.06958,3.06958 h -3.06958 q -2.55798,0 -4.371826,1.81384 -1.767334,1.76734 -1.767334,4.32532 v 6.13916 h 9.20874 q 3.06958,0 3.06958,3.06958 0,3.06958 -3.06958,3.06958 h -9.20874 v 33.76538 q 0,3.06958 -3.06958,3.06958 -3.06958,0 -3.06958,-3.06958 V 206.3918 h -3.06958 q -3.06958,0 -3.06958,-3.06958 0,-3.06958 3.06958,-3.06958 z" />
    </g>
  </g>
</svg>
