<svg xmlns="http://www.w3.org/2000/svg" viewBox="0 0 500 500"><path fill="#774aa4" d="M403 351l-40.2-26.66-33.58 56.1-39-11.48-34.3 52.57L257.7 438l186.6-34.46-10.9-116.93zm-174-50.5l29.9-4.12c4.86 2.2 8.25 2.95 14 4.57 9 2.36 19.6 4.57 35-3.24 3.68-1.76 11.2-8.68 14.14-12.65l122.67-22.38 12.53 152-210.15 38zm227.8-54.78l-12.08 2.36L421.46 7 25 53.1l48.9 397.6 46.4-6.76c-3.68-5.3-9.43-11.78-19.3-19.88-13.7-11.34-8.83-30.78-.73-43 10.6-20.62 65.68-46.83 62.44-79.82-1.17-11.93-2.94-27.54-14.13-38.3a36.62 36.62 0 0 0 .3 8.7 44.6 44.6 0 0 1-6.78-13.84c-2.22-3.1-4-4-6.5-8.1a28.78 28.78 0 0 0-1.46 10.16s-3.68-8.84-4.27-16.35c-2.2 3.4-2.8 9.73-2.8 9.73s-4.86-14-3.68-21.5c-2.22-6.48-8.85-19.44-6.93-48.9 12.08 8.55 38.73 6.5 49.2-8.83 3.38-5.15 5.73-19-1.78-46.24-4.87-17.52-16.8-43.6-21.5-53.6l-.6.44c2.5 8 7.5 24.74 9.43 32.84 5.9 24.6 7.5 33.13 4.7 44.47-2.35 9.88-8 16.36-22.23 23.57s-33.28-10.3-34.46-11.34c-13.84-11-24.6-29.16-25.77-38-1.18-9.57 5.6-15.46 9-23.27-4.86 1.47-10.3 3.83-10.3 3.83A122.4 122.4 0 0 1 86.7 94a103.13 103.13 0 0 0 8.84-6.48c-5-.15-9.13 0-9.13 0a164.84 164.84 0 0 1 17.23-8c-6.48-.3-12.52 0-12.52 0s18.86-8.3 33.72-14.64c10.3-4.27 20.32-2.95 25.92 5.15 7.36 10.75 15.17 16.5 31.5 20 10.17-4.42 13.12-6.77 25.78-10.3C219.26 67.37 228 65.9 228 65.9a19.26 19.26 0 0 0-5.45 10.32 139.85 139.85 0 0 1 13.25-9.13 52.24 52.24 0 0 0-5.15 8.53l.6.88a135.27 135.27 0 0 1 16.04-8s-2.5 3.1-5.46 7.23c5.6 0 16.94.3 21.2.74 25.93.6 31.23-27.7 41.24-31.22 12.37-4.42 18-7.22 39.17 13.7 18.1 18 32.4 49.92 25.33 57.14-5.9 5.88-17.52-2.37-30.48-18.57A71.66 71.66 0 0 1 323.87 66a30.5 30.5 0 0 0-10-17.07s4.57 10.3 4.57 19.44c0 5 .6 23.56 8.54 33.87-.74 1.47-1.18 7.5-2.06 8.7-9.28-11.2-29-19.15-32.25-21.5 10.9 9 36.08 29.6 45.8 49.47 9.13 18.7 3.68 35.94 8.4 40.36 1.32 1.33 19.58 24.15 23.1 35.64 6.2 20 .3 41.1-7.65 54.2l-22.53 3.52c-3.25-.88-5.46-1.33-8.4-3.1 1.62-2.94 4.86-10 4.86-11.62l-1.33-2.2c-6.92 9.86-18.7 19.58-28.42 25.17-12.8 7.22-27.38 6.2-37 3.1-27.1-8.4-52.86-26.8-59.04-31.67 0 0-.15 3.83 1 4.7 6.77 7.82 22.53 21.8 37.7 31.52l-32.25 3.53 15.33 119.3c-6.77 1-7.8 1.46-15.17 2.5-6.48-23.13-19-38.3-32.7-47.14-12.07-7.8-28.7-9.56-44.6-6.32l-1 1.18a57.07 57.07 0 0 1 37.54 9c13.1 8.4 23.7 29.9 27.7 42.85 5 16.65 8.38 34.32-5 53.17-9.58 13.4-37.56 20.76-60.1 4.7 6 9.73 14.15 17.68 25.2 19.15 16.34 2.2 31.8-.6 42.4-11.63 9.13-9.44 13.84-29 12.66-49.64l14.43-2.06 5.14 37.1 238-28.7zM312 145.14c-.74 1.47-1.77 2.5-.15 7.5l.15.3.3.6.58 1.46c2.8 5.74 5.9 11.2 11 14a19.63 19.63 0 0 1 4.12-.44c4.86-.15 8 .6 9.87 1.62a36.2 36.2 0 0 0 .15-4.57c-.44-7.35 1.47-19.87-12.66-26.35-5.3-2.5-12.8-1.77-15.17 1.33a2.77 2.77 0 0 1 1.17.3c3.83 1.46 1.18 2.8.6 4.26m39.46 68.48c-1.9-1-10.46-.6-16.5.15-11.48 1.33-24 5.45-26.8 7.5-5 3.84-2.64 10.6 1 13.26 10.32 7.66 19.3 12.8 28.87 11.63 5.9-.74 11-10 14.58-18.4 2.36-5.75 2.36-12.1-1.18-14.15m-102.1-59.33c3.24-3.1-16.2-7.22-31.37 3.1-11.2 7.65-11.5 24-.88 33.27a15 15 0 0 0 2.8 2.06 86 86 0 0 1 10.75-4.27 96.62 96.62 0 0 1 17.38-4c2.2-2.5 4.86-6.92 4.27-15-.88-10.9-9.13-9.28-2.95-15.17"></path></svg>
