<svg xmlns="http://www.w3.org/2000/svg" viewBox="0 0 100 100" fill="none"><path d="M72.3937 34.7026L72.3572 34.687C72.3363 34.6791 72.3154 34.6713 72.2972 34.6531C72.2672 34.6209 72.2451 34.5823 72.2324 34.5403C72.2198 34.4982 72.2169 34.4538 72.2241 34.4105L74.2402 22.085L83.6943 31.5417L73.862 35.725C73.8347 35.736 73.8054 35.7413 73.7759 35.7406H73.7368C73.7238 35.7328 73.7107 35.7223 73.6846 35.6963C73.3187 35.2889 72.8812 34.9521 72.3937 34.7026V34.7026ZM86.1067 33.9515L96.2154 44.0602C98.3149 46.1623 99.3659 47.2107 99.7493 48.4261C99.8067 48.606 99.8536 48.786 99.8901 48.9711L75.7319 38.7398C75.719 38.7345 75.7059 38.7293 75.6928 38.7242C75.5963 38.6851 75.4842 38.6407 75.4842 38.5416C75.4842 38.4425 75.5989 38.3956 75.6954 38.3565L75.7267 38.3434L86.1067 33.9515V33.9515ZM99.478 52.2155C98.9564 53.1961 97.9393 54.2133 96.218 55.9372L84.8209 67.3317L70.0803 64.262L70.0021 64.2464C69.8717 64.2255 69.7335 64.202 69.7335 64.0847C69.6775 63.4766 69.4969 62.8865 69.2031 62.3512C68.9092 61.816 68.5082 61.3469 68.0252 60.9733C67.9652 60.9133 67.9809 60.8194 67.9991 60.7333C67.9991 60.7203 67.9991 60.7073 68.0044 60.6968L70.7767 43.6768L70.7871 43.6195C70.8028 43.4891 70.8262 43.3378 70.9436 43.3378C71.5377 43.2639 72.1112 43.0725 72.6306 42.7747C73.15 42.477 73.6049 42.0788 73.9689 41.6035C73.9924 41.5774 74.008 41.5487 74.0393 41.533C74.1228 41.4939 74.2219 41.533 74.308 41.5695L99.4754 52.2155H99.478ZM82.1999 69.9527L63.4586 88.694L66.6664 68.9773L66.6717 68.9512C66.6743 68.9252 66.6795 68.8991 66.6873 68.8756C66.7134 68.813 66.7812 68.7869 66.8464 68.7609L66.8777 68.7478C67.5801 68.4481 68.2013 67.986 68.6903 67.3995C68.7529 67.3264 68.8285 67.256 68.925 67.243C68.95 67.2389 68.9756 67.2389 69.0006 67.243L82.1972 69.9553L82.1999 69.9527ZM59.4917 92.6608L57.3792 94.7733L34.0243 61.0202C34.0159 61.0079 34.0072 60.9957 33.9983 60.9837C33.9618 60.9342 33.9226 60.8846 33.9305 60.8272C33.9331 60.7855 33.9591 60.749 33.9878 60.7177L34.0139 60.6838C34.0843 60.5795 34.1443 60.4752 34.2095 60.363L34.2617 60.2717L34.2695 60.2639C34.306 60.2013 34.3399 60.1413 34.4025 60.1074C34.4573 60.0813 34.5329 60.0918 34.5929 60.1048L60.4672 65.4408C60.5395 65.4521 60.6077 65.4817 60.6654 65.5269C60.6993 65.5608 60.7071 65.5973 60.7149 65.639C60.8954 66.3219 61.2313 66.9538 61.6964 67.4854C62.1615 68.017 62.7431 68.4339 63.396 68.7035C63.469 68.74 63.4377 68.8208 63.4038 68.9069C63.3869 68.9446 63.3738 68.9839 63.3647 69.0243C63.0387 71.0064 60.2429 88.0577 59.4917 92.6608ZM55.079 97.071C53.522 98.6124 52.6039 99.4287 51.566 99.7573C50.5425 100.081 49.4441 100.081 48.4207 99.7573C47.2053 99.3713 46.1543 98.3229 44.0548 96.2208L20.6008 72.7668L26.7271 63.2657C26.7558 63.2188 26.7845 63.1771 26.8314 63.1432C26.8966 63.0962 26.9905 63.1171 27.0687 63.1432C28.4749 63.5674 29.9846 63.4909 31.3407 62.9267C31.4111 62.9006 31.4815 62.8824 31.5363 62.9319C31.5637 62.9569 31.5882 62.9849 31.6093 63.0154L55.079 97.0736V97.071ZM18.3397 70.5056L12.9593 65.1253L23.5844 60.5925C23.6116 60.5807 23.6408 60.5745 23.6705 60.5743C23.7591 60.5743 23.8113 60.6629 23.8582 60.7438C23.965 60.9081 24.0781 61.0681 24.1973 61.2237L24.2312 61.2654C24.2625 61.3097 24.2416 61.3541 24.2103 61.3958L18.3423 70.5056H18.3397ZM10.5782 62.7441L3.77121 55.9372C2.61324 54.7792 1.77346 53.9394 1.18926 53.217L21.8866 57.5098C21.9126 57.5146 21.9387 57.519 21.9648 57.5229C22.0926 57.5437 22.2334 57.5672 22.2334 57.6872C22.2334 57.8176 22.0796 57.8776 21.9492 57.9271L21.8892 57.9532L10.5782 62.7441ZM0 49.717C0.0235874 49.2785 0.102452 48.8448 0.234723 48.4261C0.620711 47.2107 1.66914 46.1623 3.77121 44.0602L12.482 35.3494C16.4927 41.1702 20.5143 46.9835 24.5468 52.7893C24.6172 52.8832 24.6954 52.9875 24.6146 53.0657C24.2338 53.4856 23.853 53.9446 23.5844 54.4428C23.5553 54.5068 23.5104 54.5624 23.454 54.6045C23.4201 54.6253 23.3836 54.6175 23.3445 54.6097H23.3392L0 49.7144V49.717ZM14.8136 33.0178L26.5263 21.3052C27.6268 21.7876 31.6328 23.4803 35.2162 24.9929C37.9286 26.1404 40.401 27.1837 41.1782 27.5227C41.2564 27.554 41.3268 27.5853 41.3607 27.6635C41.3816 27.7105 41.3712 27.7705 41.3607 27.82C41.1753 28.6655 41.2029 29.5438 41.441 30.3759C41.6791 31.2081 42.1202 31.968 42.7247 32.5875C42.803 32.6657 42.7247 32.7779 42.6569 32.8744L42.6204 32.9291L30.7278 51.3497C30.6965 51.4018 30.6678 51.4462 30.6156 51.4801C30.5531 51.5192 30.4644 51.5009 30.3914 51.4827C29.9288 51.3615 29.4533 51.2967 28.9752 51.2897C28.5475 51.2897 28.0833 51.3679 27.6138 51.454H27.6112C27.559 51.4618 27.5121 51.4722 27.4704 51.4409C27.4243 51.4033 27.3846 51.3584 27.353 51.3079L14.8136 33.0178V33.0178ZM28.8917 18.9397L44.0548 3.7766C46.1543 1.67714 47.2053 0.626103 48.4207 0.242723C49.4441 -0.0809077 50.5425 -0.0809077 51.566 0.242723C52.7813 0.626103 53.8323 1.67714 55.9318 3.7766L59.2179 7.06272L48.4337 23.7645C48.407 23.8132 48.3706 23.8558 48.3268 23.8897C48.2616 23.9341 48.1703 23.9158 48.0921 23.8897C47.2418 23.6317 46.3415 23.5847 45.469 23.7528C44.5965 23.921 43.7781 24.2992 43.0846 24.8547C43.0142 24.9277 42.9099 24.886 42.8212 24.8469C41.4129 24.234 30.4592 19.6047 28.8917 18.9397V18.9397ZM61.5078 9.35257L71.4652 19.31L69.0658 34.1706V34.2097C69.0637 34.2436 69.0567 34.2769 69.045 34.3088C69.0189 34.361 68.9667 34.3714 68.9146 34.387C68.4016 34.5424 67.9184 34.7831 67.4854 35.099C67.4667 35.1123 67.4493 35.1271 67.4332 35.1434C67.4045 35.1747 67.3758 35.2034 67.3289 35.2086C67.2907 35.2097 67.2526 35.2035 67.2167 35.1903L52.0432 28.7433L52.0145 28.7302C51.918 28.6911 51.8033 28.6442 51.8033 28.5451C51.7141 27.6995 51.4379 26.8844 50.9948 26.1587C50.9218 26.0387 50.8409 25.9136 50.9035 25.791L61.5078 9.35257V9.35257ZM51.253 31.7973L65.4772 37.8218C65.5554 37.8583 65.6415 37.8922 65.6754 37.9731C65.689 38.0217 65.689 38.0731 65.6754 38.1217C65.6337 38.3304 65.5971 38.5677 65.5971 38.8076V39.2067C65.5971 39.3058 65.4954 39.3475 65.4015 39.3866L65.3729 39.3971C63.1195 40.3594 33.7375 52.8884 33.6931 52.8884C33.6488 52.8884 33.6018 52.8884 33.5575 52.8441C33.4793 52.7658 33.5575 52.6563 33.6279 52.5572C33.6404 52.54 33.6525 52.5226 33.6644 52.505L45.3536 34.4053L45.3745 34.374C45.4423 34.2645 45.5205 34.1419 45.6457 34.1419L45.7631 34.1601C46.0291 34.1967 46.2638 34.2306 46.5012 34.2306C48.2746 34.2306 49.9177 33.3673 50.9087 31.8912C50.9323 31.8517 50.9623 31.8165 50.9974 31.7868C51.0678 31.7347 51.1721 31.7608 51.253 31.7973V31.7973ZM34.9632 55.752L66.9898 42.0938C66.9898 42.0938 67.0368 42.0938 67.0811 42.1381C67.2559 42.3128 67.4045 42.4302 67.548 42.5397L67.6184 42.5841C67.6836 42.6206 67.7488 42.6623 67.754 42.7301C67.754 42.7562 67.754 42.7719 67.7488 42.7953L65.0051 59.6484L64.9947 59.7162C64.9764 59.8466 64.9582 59.9953 64.8356 59.9953C64.1041 60.0446 63.3957 60.2716 62.7718 60.6565C62.1478 61.0415 61.6271 61.5727 61.2548 62.2043L61.2417 62.2251C61.2052 62.2851 61.1713 62.3425 61.1113 62.3738C61.0566 62.3999 60.9862 62.3894 60.9288 62.3764L35.3883 57.1082C35.3623 57.103 34.9919 55.7546 34.9632 55.752V55.752Z" fill="url(#paint0_radial_1_8)"></path><defs><radialGradient id="paint0_radial_1_8" cx="0" cy="0" r="1" gradientUnits="userSpaceOnUse" gradientTransform="translate(-3.35374 48.5891) rotate(90) scale(99.89 115.327)"><stop stop-color="#20C6B7"></stop><stop offset="1" stop-color="#4D9ABF"></stop></radialGradient></defs></svg>
