<svg xmlns="http://www.w3.org/2000/svg" viewBox="0 0 64 64"><path fill="#43af79" d="M39 9.49a3.07 3.07 0 1 0 1.8-5.87A29.74 29.74 0 0 0 3.59 23.29a3.07 3.07 0 0 0 2.94 4 3.08 3.08 0 0 0 2.94-2.19A23.43 23.43 0 0 1 32 8.45a23.77 23.77 0 0 1 7 1.04zm19.37 27.38a3.07 3.07 0 0 0-3.84 2A23.59 23.59 0 0 1 25 54.51a3.07 3.07 0 0 0-1.82 5.87A29.74 29.74 0 0 0 60.41 40.7a3.07 3.07 0 0 0-2.04-3.83z"></path><path fill="#93c8a2" d="M50.24 15.56a3.07 3.07 0 1 0-3.07-3.07 3.07 3.07 0 0 0 3.07 3.07zM13.76 48.45a3.07 3.07 0 1 0 3.07 3.07 3.07 3.07 0 0 0-3.07-3.07zm47.17-27.3H24.11a3.07 3.07 0 0 0 0 6.15h36.82a3.07 3.07 0 0 0 0-6.15zm-21 15.58H3.07a3.07 3.07 0 0 0 0 6.15H39.9a3.07 3.07 0 1 0 0-6.15z"></path></svg>
