<svg xmlns="http://www.w3.org/2000/svg" version="1.1" aria-labelledby="trello-logo-title" role="img" viewBox="0 0 74 74"><title id="trello-logo-title">Trello logo</title><path d="M64.75 0H9.25C4.14137 0 0 4.14137 0 9.25V64.75C0 69.8586 4.14137 74 9.25 74H64.75C69.8586 74 74 69.8586 74 64.75V9.25C74 4.14137 69.8586 0 64.75 0Z" fill="url(#paint0_linear)"></path><path d="M60.6986 9.60156H47.0086C44.5565 9.60156 42.5686 11.5894 42.5686 14.0416V37.5366C42.5686 39.9887 44.5565 41.9766 47.0086 41.9766H60.6986C63.1507 41.9766 65.1386 39.9887 65.1386 37.5366V14.0416C65.1386 11.5894 63.1507 9.60156 60.6986 9.60156Z" fill="white"></path><path d="M27.7501 9.62012H14.0601C11.608 9.62012 9.62012 11.608 9.62012 14.0601V56.0551C9.62012 58.5073 11.608 60.4951 14.0601 60.4951H27.7501C30.2023 60.4951 32.1901 58.5073 32.1901 56.0551V14.0601C32.1901 11.608 30.2023 9.62012 27.7501 9.62012Z" fill="white"></path><defs><linearGradient id="paint0_linear" x1="37" y1="0" x2="37" y2="74" gradientUnits="userSpaceOnUse"><stop stop-color="#0079BF"></stop><stop offset="1" stop-color="#0079BF"></stop></linearGradient></defs></svg>
